Coordinates
version=1
nRows=9
nColumns=63
inDegrees=yes

Units are S.I. units (second, meters, Newtons, ...)
If the header above contains a line with 'inDegrees', this indicates whether rotational values are in degrees (yes) or radians (no).

endheader
time	pelvis_tilt	pelvis_list	pelvis_rotation	pelvis_tx	pelvis_ty	pelvis_tz	hip_flexion_r	hip_adduction_r	hip_rotation_r	knee_angle_r	knee_angle_r_beta	ankle_angle_r	subtalar_angle_r	mtp_angle_r	hip_flexion_l	hip_adduction_l	hip_rotation_l	knee_angle_l	knee_angle_l_beta	ankle_angle_l	subtalar_angle_l	mtp_angle_l	L5_S1_Flex_Ext	L5_S1_Lat_Bending	L5_S1_axial_rotation	L4_L5_Flex_Ext	L4_L5_Lat_Bending	L4_L5_axial_rotation	L3_L4_Flex_Ext	L3_L4_Lat_Bending	L3_L4_axial_rotation	L2_L3_Flex_Ext	L2_L3_Lat_Bending	L2_L3_axial_rotation	L1_L2_Flex_Ext	L1_L2_Lat_Bending	L1_L2_axial_rotation	L1_T12_Flex_Ext	L1_T12_Lat_Bending	L1_T12_axial_rotation	Abs_r3	Abs_r2	Abs_r1	Abs_t1	Abs_t2	neck_flexion	neck_bending	neck_rotation	arm_flex_r	arm_add_r	arm_rot_r	elbow_flex_r	pro_sup_r	wrist_flex_r	wrist_dev_r	arm_flex_l	arm_add_l	arm_rot_l	elbow_flex_l	pro_sup_l	wrist_flex_l	wrist_dev_l
      9.16666667	      5.50622172	     -0.06604608	    175.44188954	      2.44350664	      0.88597148	      0.59775752	     13.68841805	      0.70188843	     -7.80518086	     23.49550833	      0.41007398	     22.42394872	     -3.05260502	      0.00000000	      9.48834844	      0.41265875	     -0.00653291	     16.39336677	      0.28611823	     18.16728680	    -18.58617966	      0.00000000	      0.00404124	     -0.21119421	     -1.03946195	      0.00750499	     -0.28088830	     -1.10442832	      0.00663936	     -0.51349760	     -1.10442832	      0.00461874	     -0.51349760	     -0.90952920	      0.00375270	     -0.43066723	     -0.84456283	      0.00230917	     -0.32713983	     -0.77959646	      0.02886619	     -2.38907112	     -5.78117551	      0.00000000	      0.00000000	     -0.00000000	      0.00000000	      0.00000000	      6.80731215	    -11.83116701	     85.25286042	     19.23627559	     53.02334157	      0.00000000	      5.00000014	     -9.84494887	    -11.07207727	     22.44350340	     21.61200086	     54.76863711	      0.00000000	      5.00000014
      9.20000000	      5.57071859	      0.02067796	    175.32852736	      2.44316821	      0.88585274	      0.59779798	     13.74399127	      0.81255732	     -7.88793300	     23.56177289	      0.41123051	     22.60717888	     -2.83946122	      0.00000000	      9.63027147	      0.28477290	     -0.17231376	     16.59744581	      0.28968008	     18.37336601	    -18.49802823	      0.00000000	      0.00511325	     -0.20836256	     -1.07323677	      0.00949582	     -0.27712221	     -1.14031407	      0.00840056	     -0.50661273	     -1.14031407	      0.00584394	     -0.50661273	     -0.93908218	      0.00474817	     -0.42489294	     -0.87200488	      0.00292171	     -0.32275361	     -0.80492758	      0.03652346	     -2.35703898	     -5.96902097	      0.00000000	      0.00000000	     -0.00000000	      0.00000000	      0.00000000	      6.91989194	    -11.89236753	     85.32553314	     19.46447052	     52.90308144	      0.00000000	      5.00000014	    -10.13668978	    -10.98651526	     21.81193746	     21.77803255	     54.39441134	      0.00000000	      5.00000014
      9.23333333	      5.59889315	      0.11188556	    175.44707137	      2.44299655	      0.88588393	      0.59828446	     13.64786554	      0.85125808	     -8.26785097	     23.38395505	      0.40812701	     22.58932316	     -2.51395100	      0.00000000	      9.93553526	      0.19757545	     -0.08460937	     17.11306272	      0.29867929	     18.50389414	    -18.42514487	      0.00000000	      0.00394506	     -0.20326387	     -1.12319003	      0.00732637	     -0.27034095	     -1.19338941	      0.00648134	     -0.49421577	     -1.19338941	      0.00450881	     -0.49421577	     -0.98279128	      0.00366338	     -0.41449568	     -0.91259190	      0.00225421	     -0.31485573	     -0.84239253	      0.02817918	     -2.29936155	     -6.24684602	      0.00000000	      0.00000000	     -0.00000000	      0.00000000	      0.00000000	      6.97496402	    -11.97329844	     85.41515846	     19.63180910	     52.41604287	      0.00000000	      5.00000014	    -10.30858846	    -10.86874304	     21.32447728	     21.93076615	     53.65502757	      0.00000000	      5.00000014
      9.26666667	      5.59663124	      0.04453391	    175.26603776	      2.44314619	      0.88593009	      0.59856604	     13.60417225	      0.74717666	     -8.34354802	     23.24995220	      0.40578822	     22.53547832	     -2.17236980	      0.00000000	     10.13498863	      0.26285807	     -0.16861132	     17.44226818	      0.30442501	     18.55629019	    -18.38384069	      0.00000000	      0.00416596	     -0.21411612	     -1.09435774	      0.00773661	     -0.28477444	     -1.16275509	      0.00684426	     -0.52060194	     -1.16275509	      0.00476128	     -0.52060194	     -0.95756302	      0.00386851	     -0.43662559	     -0.88916566	      0.00238043	     -0.33166587	     -0.82076830	      0.02975705	     -2.42212438	     -6.08648942	      0.00000000	      0.00000000	     -0.00000000	      0.00000000	      0.00000000	      7.00512843	    -11.99220662	     85.49340681	     19.66935814	     52.05042322	      0.00000000	      5.00000014	    -10.30630498	    -10.71567572	     20.76961993	     21.83041140	     53.06667254	      0.00000000	      5.00000014
      9.30000000	      5.58097804	      0.04573238	    175.41534360	      2.44345583	      0.88598449	      0.59913028	     13.47402280	      0.78094047	     -8.11328409	     22.93587564	      0.40030655	     22.16327992	     -2.86893804	      0.00000000	     10.31618734	      0.35108064	      0.25349287	     17.69330381	      0.30880641	     18.45172495	    -18.50559855	      0.00000000	      0.00450153	     -0.21596906	     -1.11665225	      0.00835980	     -0.28723885	     -1.18644302	      0.00739557	     -0.52510717	     -1.18644302	      0.00514480	     -0.52510717	     -0.97707072	      0.00418012	     -0.44040410	     -0.90727996	      0.00257218	     -0.33453607	     -0.83748919	      0.03215400	     -2.44308518	     -6.21048483	      0.00000000	      0.00000000	     -0.00000000	      0.00000000	      0.00000000	      7.34503428	    -11.96178282	     87.13752479	     19.61115970	     53.27074711	      0.00000000	      5.00000014	    -10.37290257	    -10.37309486	     18.87824662	     21.82461889	     53.82541226	      0.00000000	      5.00000014
      9.33333333	      5.54339383	     -0.00180962	    175.13857169	      2.44378241	      0.88603105	      0.59904096	     13.34349668	      0.73955164	     -8.09143595	     22.63650416	      0.39508153	     21.89198152	     -2.64712069	      0.00000000	     10.31304472	      0.41268906	      0.09298557	     17.69099737	      0.30876615	     18.40370099	    -18.55624696	      0.00000000	      0.00373371	     -0.22026163	     -1.03770919	      0.00693388	     -0.29294797	     -1.10256601	      0.00613412	     -0.53554412	     -1.10256601	      0.00426726	     -0.53554412	     -0.90799554	      0.00346713	     -0.44915751	     -0.84313872	      0.00213344	     -0.34118526	     -0.77828189	      0.02666955	     -2.49164360	     -5.77142720	      0.00000000	      0.00000000	     -0.00000000	      0.00000000	      0.00000000	      7.30434407	    -11.92555712	     87.20353569	     19.48072863	     52.92149565	      0.00000000	      5.00000014	    -10.21760635	    -10.28327283	     18.74312796	     21.71584461	     53.47598895	      0.00000000	      5.00000014
      9.36666667	      5.49923047	     -0.07647123	    175.07247358	      2.44396710	      0.88603563	      0.59892314	     13.24268521	      0.66096980	     -8.10644414	     22.45440305	      0.39190326	     21.67003950	     -2.69207219	      0.00000000	     10.17975445	      0.51556116	     -0.04038844	     17.41684626	      0.30398131	     18.18979166	    -18.62950455	      0.00000000	      0.00390262	     -0.22723012	     -0.99806793	      0.00724755	     -0.30221605	     -1.06044718	      0.00641161	     -0.55248730	     -1.06044718	      0.00446030	     -0.55248730	     -0.87330944	      0.00362397	     -0.46336765	     -0.81093020	      0.00222995	     -0.35197945	     -0.74855095	      0.02787600	     -2.57047251	     -5.55095443	      0.00000000	      0.00000000	     -0.00000000	      0.00000000	      0.00000000	      7.27348666	    -11.85395415	     87.21906682	     19.33410959	     53.33061506	      0.00000000	      5.00000014	    -10.09636823	    -10.26661225	     18.58032932	     21.66149650	     54.02254133	      0.00000000	      5.00000014
      9.40000000	      5.45701469	     -0.13483624	    174.95704221	      2.44398689	      0.88600672	      0.59859711	     13.14113617	      0.67009353	     -7.79771234	     22.27394942	      0.38875375	     21.43497188	     -2.99468691	      0.00000000	     10.01658085	      0.57055133	     -0.30764410	     17.13835889	      0.29912079	     18.06768253	    -18.64616228	      0.00000000	      0.00434807	     -0.23102760	     -0.95111739	      0.00807480	     -0.30726671	     -1.01056222	      0.00714344	     -0.56172052	     -1.01056222	      0.00496941	     -0.56172052	     -0.83222771	      0.00403762	     -0.47111149	     -0.77278288	      0.00248449	     -0.35786176	     -0.71333804	      0.03105783	     -2.61343047	     -5.28982957	      0.00000000	      0.00000000	     -0.00000000	      0.00000000	      0.00000000	      7.20332053	    -11.79657343	     87.12334765	     19.19278976	     53.86976301	      0.00000000	      5.00000014	    -10.02329390	    -10.30383247	     18.54966268	     21.67985647	     54.79999568	      0.00000000	      5.00000014
      9.43333333	      5.43668852	     -0.10168430	    174.94055493	      2.44400273	      0.88596431	      0.59817488	     13.01942721	      0.91980106	     -6.84558744	     21.99357274	      0.38386026	     21.00670055	     -4.30282391	      0.00000000	      9.97822705	      0.49693728	     -0.52336745	     17.10652445	      0.29856518	     18.04595269	    -18.63551507	      0.00000000	      0.00442128	     -0.22668492	     -0.93108709	      0.00821075	     -0.30149094	     -0.98928003	      0.00726372	     -0.55116170	     -0.98928003	      0.00505308	     -0.55116170	     -0.81470120	      0.00410560	     -0.46225588	     -0.75650826	      0.00252632	     -0.35113493	     -0.69831531	      0.03158074	     -2.56430510	     -5.17842705	      0.00000000	      0.00000000	     -0.00000000	      0.00000000	      0.00000000	      7.38995299	    -11.72951631	     88.48539200	     19.01273425	     54.82352321	      0.00000000	      5.00000014	     -9.79593966	    -10.55755787	     19.96072300	     21.56318395	     56.80207145	      0.00000000	      5.00000014
